# xmcd CD database file generated by Grip 3.0.1
# 
# Track frame offsets:
#       150
#       13438
#       36591
#       51613
#       66298
#       87893
#       101583
#       115716
#       133806
#       150086
#       165146
#       178433
#       193383
#       213488
#       229861
#       244003
# 
# Disc length: 3620 seconds
# 
# Revision: 11
# Processed by: cddbd v1.4PL0 Copyright (c) Steve Scherf et al.
# Submitted via: Grip 3.0.1
# 
DISCID=e70e2210
DTITLE=Eric Clapton - From The Cradle
DYEAR=1994
DGENRE=Blues
TTITLE0=Blues Before Sunrise
TTITLE1=Third Degree
TTITLE2=Reconsider Baby
TTITLE3=Hoochie Coochie Man
TTITLE4=Five Long Years
TTITLE5=I'm Tore Down
TTITLE6=How Long Blues
TTITLE7=Goin' Away Baby
TTITLE8=Blues Leave Me Alone
TTITLE9=Sinner's Prayer
TTITLE10=Motherless Child
TTITLE11=It Hurts Me Too
TTITLE12=Someday After A While
TTITLE13=Standin' Round Crying
TTITLE14=Driftin'
TTITLE15=Groaning The Blues
EXTD=YEAR: 1994 ID3G: 24
EXTT0=
EXTT1=
EXTT2=
EXTT3=
EXTT4=
EXTT5=
EXTT6=
EXTT7=
EXTT8=
EXTT9=
EXTT10=
EXTT11=
EXTT12=
EXTT13=
EXTT14=
EXTT15=
PLAYORDER=
